<?xml version="1.0" encoding="UTF-8"?>
<svg width="35px" height="35px" viewBox="0 0 35 35" version="1.1" xmlns="http://www.w3.org/2000/svg" xmlns:xlink="http://www.w3.org/1999/xlink">
    <title>Shape</title>
    <g id="Symbols" stroke="none" stroke-width="1" fill="none" fill-rule="evenodd">
        <g id="button/round-negative" transform="translate(-8.000000, -8.000000)" fill="#FFFFFF" fill-rule="nonzero">
            <path d="M29.3548374,25.5 L42.4408537,12.4134146 C42.800813,12.0531707 42.9994309,11.572561 43,11.0600813 C43,10.5473171 42.8013821,10.0661382 42.4408537,9.70646341 L41.2941057,8.56 C40.9335772,8.19890244 40.4529675,8.00113821 39.9399187,8.00113821 C39.4277236,8.00113821 38.9471138,8.19890244 38.5865854,8.56 L25.5005691,21.6457317 L12.4139837,8.56 C12.0540244,8.19890244 11.5731301,8.00113821 11.0603659,8.00113821 C10.5481707,8.00113821 10.0672764,8.19890244 9.70731707,8.56 L8.56,9.70646341 C7.81333333,10.4531301 7.81333333,11.6676016 8.56,12.4134146 L21.6463008,25.5 L8.56,38.5860163 C8.1997561,38.9468293 8.00142276,39.427439 8.00142276,39.9399187 C8.00142276,40.4523984 8.1997561,40.9330081 8.56,41.2935366 L9.70703252,42.44 C10.0669919,42.800813 10.5481707,42.9988618 11.0600813,42.9988618 C11.5728455,42.9988618 12.0537398,42.800813 12.4136992,42.44 L25.5002846,29.3539837 L38.5863008,42.44 C38.9468293,42.800813 39.427439,42.9988618 39.9396341,42.9988618 L39.9402033,42.9988618 C40.4526829,42.9988618 40.9332927,42.800813 41.2938211,42.44 L42.4405691,41.2935366 C42.8005285,40.9332927 42.9991463,40.4523984 42.9991463,39.9399187 C42.9991463,39.427439 42.8005285,38.9468293 42.4405691,38.5863008 L29.3548374,25.5 Z" id="Shape"></path>
        </g>
    </g>
</svg>